# xmcd
#
# Track frame offsets: 
#        150
#        15077
#        25637
#        42335
#        53685
#        66955
#        85472
#        100912
#        113692
#        124057
#        143862
#        153747
#        161222
#        172935
#
# Disc length: 2647 seconds
#
# Revision: 1
# Processed by: cddbd v1.4PL0 Copyright (c) Steve Scherf et al.
# Submitted via: ExactAudioCopy v0.90b3
#
DISCID=af0a550e
DTITLE=Wayne Hancock - Thunderstorms And Neon Signs
DYEAR=1900
DGENRE=Country
TTITLE0=Juke Joint Jumping
TTITLE1=Poor Boy Blues
TTITLE2=Thunderstorms And Neon Signs
TTITLE3=She's My Baby
TTITLE4=Big City Good Time Gal
TTITLE5=Ain't Nobody's Blues But My Own
TTITLE6=Double A Daddy
TTITLE7=Why Don't You Leave Me Alone
TTITLE8=Tag Along
TTITLE9=Cold Lonesome Wind
TTITLE10=Locomotive Joe
TTITLE11=No Loving Tonight
TTITLE12=Friday And Saturday Night
TTITLE13=Summertime
EXTD=
EXTT0=
EXTT1=
EXTT2=
EXTT3=
EXTT4=
EXTT5=
EXTT6=
EXTT7=
EXTT8=
EXTT9=
EXTT10=
EXTT11=
EXTT12=
EXTT13=
PLAYORDER=
